<svg width="48" height="48" viewBox="0 0 48 48" fill="none" xmlns="http://www.w3.org/2000/svg">
<path d="M48 0H0V48H48V0Z" fill="#FF9D00"/>
<path fill-rule="evenodd" clip-rule="evenodd" d="M31.8229 24.3548L30.0206 22.5525V27.1826L31.8229 28.7866V24.3548ZM27.4235 16.1977L23.8261 11.5496L19.6665 16.1599C20.6992 15.9977 21.9662 15.8715 23.3954 15.8715C24.994 15.8715 26.3565 16.0193 27.4235 16.1977ZM17.4046 27.1826V22.5525L15.6023 24.3548V28.7866L17.4046 27.1826ZM33.6251 23.9818V30.7944C33.6251 31.1512 33.4179 31.472 33.0935 31.6162C32.9745 31.6703 32.8484 31.6955 32.724 31.6955C32.5077 31.6955 32.2933 31.618 32.1256 31.4666L30.0206 29.5923V29.9365C30.0206 31.6216 28.649 32.9932 26.9639 32.9932H26.416V34.7954H24.6137V32.092C24.6137 31.5946 25.0174 31.1909 25.5149 31.1909H26.9639C27.6542 31.1909 28.2183 30.6268 28.2183 29.9365V18.1982C27.1856 17.9585 25.5239 17.6738 23.3954 17.6738C21.6976 17.6738 20.2576 17.8684 19.2069 18.0739V29.9365C19.2069 30.6268 19.771 31.1909 20.4613 31.1909H21.9103C22.4077 31.1909 22.8115 31.5946 22.8115 32.092V34.7954H21.0092V32.9932H20.4613C18.7761 32.9932 17.4046 31.6216 17.4046 29.9365V29.5923L15.2995 31.4666C15.1319 31.618 14.9175 31.6955 14.7012 31.6955C14.5768 31.6955 14.4507 31.6703 14.3317 31.6162C14.0073 31.472 13.8 31.1512 13.8 30.7944V23.9818C13.8 23.7421 13.8956 23.5132 14.0632 23.3438L17.4046 20.0041V18.519C17.4028 18.519 17.3848 18.5245 17.3848 18.5245C17.2875 18.5587 17.1865 18.5749 17.0874 18.5749C16.7918 18.5749 16.5071 18.4289 16.3359 18.1712C16.1088 17.8288 16.143 17.3764 16.4188 17.07L22.7267 10.079C23.2116 9.45357 24.4443 9.41212 25.003 10.124L30.4171 17.1223C30.6622 17.4395 30.6658 17.881 30.4315 18.2054C30.3252 18.3496 30.1792 18.4506 30.0206 18.51V20.0041L33.362 23.3438C33.5296 23.5132 33.6251 23.7421 33.6251 23.9818ZM22.8115 23.9818H24.6137V22.1795H22.8115V23.9818ZM25.5149 25.784H21.9103C21.4129 25.784 21.0092 25.3803 21.0092 24.8829V21.2783C21.0092 20.7809 21.4129 20.3772 21.9103 20.3772H25.5149C26.0123 20.3772 26.416 20.7809 26.416 21.2783V24.8829C26.416 25.3803 26.0123 25.784 25.5149 25.784ZM26.416 34.7954H28.2183V37.4989C28.2183 37.9963 27.8146 38.4 27.3172 38.4H20.108C19.6106 38.4 19.2069 37.9963 19.2069 37.4989V34.7954H21.0092V36.5977H26.416V34.7954Z" fill="white"/>
</svg>
